<?xml version="1.0"?>
<svg id="Layer_1" data-name="Layer 1" xmlns="http://www.w3.org/2000/svg" fill="#e9eef7" viewBox="0 0 154 44">
  <path d="M81.76,21.7h-2.29l15.21-19.64h-37.54v34.65l.05-.05s2.54-3.14,4.84-6.18c2.04-2.69,3.99-5.29,4.19-5.53.4-.6,1-1.89,1-1.89h3.04s.1,1.2.2,1.5c.1.25,1.94,6.38,1.99,6.43l1.05-1.3-1.75-5.43s-.4-1-.55-1.2h3.59c0,.35.05.65.1.95.15.45.9,3.19.9,3.19,0,0,2.44-3.04,2.59-3.29s.3-.6.3-.9h2.99s-.55.4-1.5,1.6c-.3.4-3.44,4.39-3.44,4.39,0,0,.2,1,.35,1.5.05.15.05.2.05.25,0,0,.05-.1.2-.25.8-1.05,4.49-5.88,4.74-6.28.2-.35.45-.7.6-1.15h2.89s.05.85.15,1.1l1.79,6.33c.7,1.94,2.14,6.98,2.69,7.38h-3.74c0-.45-.05-.9-.2-1.35-.15-.6-1.5-4.94-1.5-4.94h-5.93l-.95,1.35s1.15,3.54,1.2,3.69c.1.3.65,1.25.65,1.25h-3.59s-.1-.55-.15-.75-.35-1.15-.35-1.15c0,0-.8.9-1.05,1.3-.2.4-.3.65-.3.65h-2.79s-.1-.55-.15-.75c-.05-.2-.35-1.25-.35-1.25,0,0-.8.95-1,1.35-.2.4-.3.65-.3.65h-2.79s.8-.75,1.05-1.05c.45-.55,2.19-2.79,2.19-2.79l-.7-2.39h-5.93s-3.39,4.44-3.49,4.59c-.15.15-1.1,1.55-1.15,1.7h-1.75v3.99h39.74V2.06h0s-15.11,19.64-15.11,19.64Z"></path>
  <path d="M67.9,25.89s0-.15-.05-.05c-.45.9-2.94,3.99-2.94,3.99h3.99s-.75-2.39-.9-2.89c-.1-.35-.1-.7-.1-1.05Z"></path>
  <path d="M74.18,31.67l-1.05,1.35.7,2.09,1.1-1.5c-.1-.1-.75-1.94-.75-1.94Z"></path>
  <path d="M83.16,25.89s0-.15-.05-.05c-.45.9-2.94,3.99-2.94,3.99h3.99s-.75-2.39-.9-2.89c-.1-.35-.1-.7-.1-1.05Z"></path>
</svg>