<?xml version="1.0"?>
<svg id="Layer_1" data-name="Layer 1" xmlns="http://www.w3.org/2000/svg" fill="#e9eef7" viewBox="0 0 154 44">
  <g id="SIEMENS">
    <g>
      <path d="M33.11,28.49v-2.66c1.51.48,2.85.71,4.01.71,1.61,0,2.41-.42,2.41-1.27,0-.32-.12-.58-.35-.8-.24-.23-.85-.54-1.84-.95-1.77-.73-2.92-1.35-3.46-1.86-.7-.68-1.04-1.53-1.04-2.56,0-1.33.51-2.34,1.52-3.04,1-.69,2.31-1.04,3.92-1.04.89,0,2.17.16,3.85.49v2.56c-1.25-.5-2.41-.75-3.48-.75-1.51,0-2.26.41-2.26,1.24,0,.31.15.56.46.76.25.16.95.49,2.09,1.01,1.64.73,2.73,1.36,3.28,1.9.65.64.97,1.47.97,2.48,0,1.46-.63,2.57-1.9,3.34-1.03.62-2.36.93-3.99.93-1.38,0-2.77-.16-4.17-.49h0Z" style="fill-rule: evenodd;"></path>
      <polygon points="45.3 15.26 45.3 15.26 49.05 15.26 49.05 28.71 45.3 28.71 45.3 15.26" style="fill-rule: evenodd;"></polygon>
      <polygon points="52.5 28.71 52.5 15.26 62.14 15.26 62.14 17.69 56.12 17.69 56.12 20.73 61.36 20.73 61.36 22.95 56.12 22.95 56.12 26.14 62.29 26.14 62.29 28.71 52.5 28.71" style="fill-rule: evenodd;"></polygon>
      <polygon points="64.75 28.71 64.75 15.26 69.62 15.26 73 23.85 76.47 15.26 81.1 15.26 81.1 28.71 77.54 28.71 77.54 19.18 73.59 28.84 71.26 28.84 67.39 19.18 67.39 28.71 64.75 28.71" style="fill-rule: evenodd;"></polygon>
      <polygon points="84.54 28.71 84.54 15.26 94.18 15.26 94.18 17.69 88.16 17.69 88.16 20.73 93.4 20.73 93.4 22.95 88.16 22.95 88.16 26.14 94.34 26.14 94.34 28.71 84.54 28.71" style="fill-rule: evenodd;"></polygon>
      <polygon points="96.81 28.71 96.81 15.26 101.16 15.26 105.78 24.26 105.78 15.26 108.43 15.26 108.43 28.71 104.2 28.71 99.46 19.58 99.46 28.71 96.81 28.71" style="fill-rule: evenodd;"></polygon>
      <path d="M111.1,28.49v-2.66c1.5.48,2.84.71,4.01.71,1.61,0,2.41-.42,2.41-1.27,0-.32-.11-.58-.34-.8-.24-.23-.86-.54-1.85-.95-1.76-.72-2.92-1.34-3.46-1.86-.7-.67-1.04-1.53-1.04-2.57,0-1.32.51-2.33,1.52-3.03,1-.69,2.31-1.04,3.92-1.04.91,0,2.08.14,3.52.43l.33.06v2.56c-1.25-.5-2.41-.75-3.49-.75-1.5,0-2.25.41-2.25,1.24,0,.31.15.56.45.76.24.15.94.49,2.1,1.01,1.63.73,2.72,1.36,3.27,1.9.65.64.97,1.47.97,2.48,0,1.46-.63,2.57-1.89,3.34-1.03.62-2.37.93-4,.93-1.38,0-2.77-.16-4.17-.49h0Z" style="fill-rule: evenodd;"></path>
    </g>
  </g>
</svg>