<?xml version="1.0"?>
<svg id="Layer_1" data-name="Layer 1" xmlns="http://www.w3.org/2000/svg" fill="#e9eef7" viewBox="0 0 154 44">
  <g>
    <path d="M6.15,32.66c.29-.18.47-.53.47-.88v-7.86c0-.35-.12-.7-.47-.88h3.76c1.7,0,3.34.7,3.34,2.58,0,1-.88,1.82-1.82,1.99,1.35,0,2.7.82,2.7,2.35,0,2.17-2.29,2.7-3.87,2.7h-4.11ZM9.2,23.86c-.18,0-.29,0-.65.06v3.34h.41c1.17,0,2.29-.35,2.29-1.7s-.94-1.7-2.05-1.7ZM9.44,28.15h-.88v3.58c.41.06.88.12,1.29.12.94,0,1.94-.41,1.94-1.94.06-1.41-1.11-1.76-2.35-1.76ZM17.83,23.86c-.18,0-.35,0-.47.06v3.34h.47c1.11,0,1.88-.59,1.88-1.76s-.82-1.64-1.88-1.64ZM22.7,32.72c-.35,0-.76,0-1.11-.12-.65-.18-1.58-1.7-1.94-2.23-.59-.94-1.06-2.23-2.29-2.23v3.7c0,.29.12.7.47.88h-2.88c.29-.18.47-.53.47-.88v-7.92c0-.35-.12-.7-.47-.88h3.46c1.53,0,3.4.59,3.4,2.41,0,1.53-1.29,2.29-2.7,2.29,1.99,0,3.17,4.69,5.4,4.75-.59.18-1.17.23-1.82.23ZM24.69,32.66c.23-.12.47-.41.47-.88v-7.86c0-.41-.23-.76-.47-.88h2.93c-.23.12-.47.41-.47.88v7.92c0,.41.23.76.47.88h-2.93s0-.06,0-.06ZM31.15,32.66c.29-.12.47-.53.47-.88v-7.63h-2.11c-.47,0-1.06.06-1.53.29l.65-1.41h7.04c.59,0,1.17,0,1.7-.12-.29.7-1.06,1.29-1.53,1.29-.59,0-1.47-.06-2.29-.06v7.69c0,.35.18.7.47.88l-2.88-.06h0ZM37.78,32.66c.23-.12.47-.41.47-.88v-7.86c0-.41-.23-.76-.47-.88h2.99c-.23.12-.47.41-.47.88v7.92c0,.41.23.76.47.88h-2.99v-.06ZM46.52,30.49c0-1.82-4.34-2.23-4.34-5.16,0-1.82,1.7-2.41,3.23-2.41.7,0,1.64.12,2.29.35l.12,1.82c-.35-.82-1.35-1.35-2.23-1.35-.7,0-1.41.35-1.41,1.17,0,1.88,4.4,2.35,4.4,5.16,0,1.99-1.76,2.88-3.52,2.88-.94,0-2.17-.18-2.99-.7-.06-.29-.06-.65-.06-1,0-.41.06-.76.12-1.17.47,1.11,1.53,1.99,2.76,1.99.94-.12,1.64-.53,1.64-1.58ZM55.79,32.66c.23-.12.41-.41.41-.88v-3.58c-.53-.06-1.23-.06-2.05-.06s-1.53,0-2.05.06v3.58c0,.41.23.76.41.88h-2.88c.23-.12.41-.41.41-.88v-7.86c0-.41-.23-.76-.41-.88h2.88c-.23.12-.41.41-.41.88v3.23c.53.06,1.23.06,2.05.06s1.53-.06,2.05-.06v-3.23c0-.41-.23-.76-.41-.88h2.88c-.23.12-.41.41-.41.88v7.92c0,.41.23.76.41.88h-2.88v-.06Z"></path>
    <path d="M69.23,32.66c.12-.12.18-.18.18-.35,0-.06,0-.18-.12-.35,0,0-.76-2.17-.88-2.41-.59-.06-1.23-.06-1.82-.06s-1.17,0-1.76.06c-.06.23-.94,2.35-.94,2.35-.12.29-.18.41-.18.47,0,.12.12.23.23.23h-1.94c.29-.12.53-.47.65-.76l3.17-8.21v-.12c0-.23-.18-.47-.35-.53h2.52l3.23,8.92c.12.35.41.65.65.76,0,0-2.64,0-2.64,0ZM66.7,24.86l-1.47,3.76c.41.06.88.06,1.35.06.53,0,1,0,1.53-.06l-1.41-3.76ZM72.51,32.66c.23-.12.47-.41.47-.88v-7.86c0-.41-.23-.76-.47-.88h2.99c-.23.12-.47.41-.47.88v7.92c0,.41.23.76.47.88h-2.99v-.06ZM79.96,23.86c-.18,0-.29,0-.47.06v3.34h.47c1.11,0,1.88-.59,1.88-1.76s-.82-1.64-1.88-1.64ZM85.07,32.72c-.35,0-.76,0-1.11-.12-.65-.18-1.58-1.7-1.94-2.23-.59-.94-1.29-2.23-2.52-2.23v3.7c0,.29.12.7.47.88h-2.88c.29-.18.47-.53.47-.88v-7.92c0-.35-.12-.7-.47-.88h3.52c1.53,0,3.4.59,3.4,2.41,0,1.53-1.41,2.29-2.41,2.29,2.05.12,3.34,4.75,5.4,4.75-.7.18-1.29.23-1.94.23h0ZM97.1,23.98l-2.93,8.68c-.23,0-.47-.06-.59-.18-.29-.29-.76-1.47-.94-1.88l-1.35-3.34-1.94,5.4h-.88l-3.29-8.74c-.12-.35-.35-.7-.76-.94h2.88c-.12.12-.18.18-.18.41,0,.12.06.23.06.35l2.11,5.75,2.29-6.51,2.52,6.28,1.88-5.69c.06-.18.06-.23.06-.29,0-.12-.06-.18-.18-.29h1.88c-.29.23-.53.65-.65,1h0ZM100.62,24.86l-1.47,3.76c.47.06.88.06,1.35.06.53,0,1,0,1.47-.06l-1.35-3.76ZM103.14,32.66c.12-.12.18-.18.18-.35,0-.06-.06-.18-.06-.35,0,0-.76-2.17-.88-2.41-.59-.06-1.23-.06-1.82-.06s-1.17,0-1.7.06c-.06.23-.94,2.35-.94,2.35-.12.29-.18.41-.18.47,0,.12.12.23.23.23h-1.94c.29-.12.53-.47.65-.76l3.23-8.21v-.12c0-.23-.18-.47-.35-.53h2.52l3.23,8.92c.12.35.41.65.65.76h-2.82,0ZM111.82,24.04l-2.29,3.99v3.76c0,.29.12.7.41.88h-2.82c.29-.18.41-.59.41-.88v-3.76l-1.99-3.17c-.18-.29-1-1.7-1.99-1.7.29-.12,1.11-.23,1.64-.23.94,0,1.41.06,1.99,1l1.82,2.93c.18-.29,1.58-2.82,1.58-2.82.18-.29.29-.53.29-.65s-.06-.23-.18-.29h2.05c-.35.12-.7.59-.94.94ZM117.16,30.49c0-1.82-4.34-2.23-4.34-5.16,0-1.82,1.7-2.41,3.23-2.41.7,0,1.64.12,2.29.35l.12,1.82c-.41-.82-1.35-1.35-2.23-1.35-.7,0-1.41.35-1.41,1.17,0,1.88,4.4,2.35,4.4,5.16,0,1.99-1.76,2.88-3.52,2.88-.94,0-2.17-.18-2.99-.7-.06-.29-.06-.65-.06-1,0-.41.06-.76.12-1.17.47,1.11,1.53,1.99,2.76,1.99.94-.12,1.64-.53,1.64-1.58h0Z"></path>
  </g>
  <path d="M143.8,16.29c-1.64,1.58-5.16,2.99-6.87,3.64-2.35.88-3.4,1.17-4.75,1.64-1.47.47-4.46,1.41-4.46,1.41,6.22,1.88,10.56,2.41,10.56,2.41,0,0,2.05-.65,5.28-2.35,1.76-.88,2.58-1.47,3.23-2.05.23-.18.82-.82.94-1.58,0-.06.06-.23.06-.35v-.35s-.06-.18-.06-.29c-.06-.12-.23-.53-.59-.76-.23-.18-.59-.59-1.94-1.11-.47-.18-1.23-.29-1.23-.29l-.18.06h0Z"></path>
  <path d="M147.79,18.99s0-.18-.06-.29-.12-.23-.18-.41c-.12-.18-.23-.35-.47-.53-.18-.18-.35-.29-.53-.41-.82-.53-1.94-.88-2.88-1-1.53-.23-3.29-.23-3.4-.23-.53,0-4.11,0-5.05.06-4.05.06-9.04.12-10.39.12-13.5.06-19.36-.23-25.88-1.53-5.57-1.11-8.63-2.17-8.63-2.17,4.93-.18,33.5-1.35,38.73-1.47,3.4-.12,5.87-.12,7.8,0,1,.06,1.94.12,3.11.35,1.06.18,1.99.47,2.52.7,1.17.41,2.11,1.06,2.64,1.7,0,0,.12.12.35.41.23.29.47.7.53.82.7,1.06,1.06,1.76,1.17,1.99.12.23.23.53.35.76.12.23.18.41.18.53.06.23.12.53.12.53,0,0-.06.06-.06.06Z"></path>
</svg>