<?xml version="1.0"?>
<svg id="Layer_2" data-name="Layer 2" xmlns="http://www.w3.org/2000/svg" xmlns:xlink="http://www.w3.org/1999/xlink" viewBox="0 0 849.56 158.27">
  <defs>
    <linearGradient id="linear-gradient" x1="-468.95" y1="-9498.01" x2="-230.07" y2="-9498.01" gradientTransform="translate(-66.69 -9438.58) rotate(-180)" gradientUnits="userSpaceOnUse">
      <stop offset=".1" stop-color="#b5e602"></stop>
      <stop offset=".75" stop-color="#b5e602" stop-opacity=".48"></stop>
      <stop offset="1" stop-color="#fff" stop-opacity="0"></stop>
    </linearGradient>
  </defs>
  <g id="Layer_1-2" data-name="Layer 1">
    <g>
      <g>
        <path fill="#ffffff" d="M145.48,102.85c0,33.15-27.84,55.42-69.27,55.42-28.4,0-54.77-9.72-74.24-27.36l-1.97-1.78,31.59-37.72,2.11,1.77c15.72,13.17,32.24,20.13,47.75,20.13,3.66,0,7.94-.98,7.94-3.75,0-2.6-1.92-3.87-22.34-11.47-26.52-9.79-41.87-20.12-41.87-43.92C25.19,22.78,54.15,0,94.04,0c26.26,0,50.15,8.06,67.26,22.69l2.07,1.77-31.61,37.75-2.11-1.71c-12.16-9.86-27.35-15.75-40.65-15.75-2.39,0-7.94.3-7.94,3.12,0,2.05,2.23,3.01,17.77,8.76l3.93,1.46c25.64,9.48,42.72,20.72,42.72,44.76Z"></path>
        <polygon fill="#ffffff" points="481.03 2.94 440.1 155.33 494.91 155.33 535.84 2.94 481.03 2.94"></polygon>
        <polygon fill="#ffffff" points="645.85 2.94 628.36 67.85 597.46 2.94 547.65 2.94 506.73 155.33 561.11 155.33 579.44 87.47 611.82 155.33 659.31 155.33 700.24 2.94 645.85 2.94"></polygon>
        <polygon fill="#ffffff" points="708.3 2.94 695.7 50 738.92 50 710.6 155.33 765.41 155.33 793.73 50 836.96 50 849.56 2.94 708.3 2.94"></polygon>
        <path fill="#ffffff" d="M301.95,51.44c0,19.06-7.14,35.14-20.65,46.51-13.61,11.46-33.11,17.51-56.38,17.51h-18.66l-10.7,39.87h-54.81L181.67,2.94h51.42c27.35,0,44.77,5.23,56.51,16.97,8.08,8.08,12.35,18.98,12.35,31.53Z"></path>
        <path fill="#ffffff" d="M410.74,105.37l20.8,49.96h-58.9l-16.37-41.97h-8.17l-11.33,41.97h-54.81L322.89,2.94h59.4c26.24,0,45.11,5.57,56.09,16.54,8.08,8.08,12.35,19.35,12.35,32.59,0,25.45-14.17,44.28-39.99,53.3Z"></path>
      </g>
      <path d="M169.77,47.24h220.3c6.73,0,12.19,5.46,12.19,12.19s-5.46,12.19-12.19,12.19h-226.7" style="fill: url(#linear-gradient);"></path>
    </g>
  </g>
</svg>