<?xml version="1.0"?>
<svg id="Layer_1" data-name="Layer 1" xmlns="http://www.w3.org/2000/svg" fill="#e9eef7" viewBox="0 0 154 44">
  <g id="g3017">
    <g id="g3061">
      <g id="g3021">
        <path id="path3023" d="M97.82,22c0-11.5-9.32-20.82-20.82-20.82-.31,0-.63,0-.93.02l-4.26,11.71h3.71c2.21,0,3.4,1.7,2.64,3.78l-5.25,14.44h-4.41l5.64-15.48h-3.32l-5.64,15.48h-4.42l6.63-18.21h0l3.99-10.96c-8.77,2.45-15.2,10.5-15.2,20.06s6.82,18.08,15.99,20.26l3.86-10.62h0l6.82-18.73h8.13c2.21,0,3.4,1.7,2.64,3.78l-4.62,12.68c-.35.97-1.48,1.76-2.51,1.76h-5.85l-4.26,11.7c.2,0,.41,0,.62,0,11.5,0,20.82-9.32,20.82-20.82"></path>
      </g>
      <g id="g3025">
        <path id="path3027" d="M89.6,15.63h-3.32l-4.64,12.74h3.32l4.64-12.74"></path>
      </g>
    </g>
  </g>
</svg>