<?xml version="1.0"?>
<svg id="Layer_1" data-name="Layer 1" xmlns="http://www.w3.org/2000/svg" fill="#e9eef7" viewBox="0 0 154 44">
  <g id="g3343">
    <path id="path3345" d="M116.24,18.77l-.24,2.71h-1.12c-1.75,0-2.71,1.43-2.71,2.79v6.21h-3.19v-11.71h3.03v1.43c.72-1.04,1.83-1.43,3.19-1.43h1.04ZM94.33,30.56h-3.19v-6.21c0-1.27-.08-2.95-1.91-2.95s-2.47,1.27-2.47,2.71v6.37h-3.19v-11.71h2.95v1.51c.72-1.04,1.83-1.75,3.59-1.75,3.19,0,4.22,2.31,4.22,4.62v7.33h0v.08ZM82.14,27.77l-.24,2.71c-.8.24-1.43.32-2.23.32-3.03,0-3.82-1.35-3.82-4.14v-11.15h3.19v3.35h3.19l-.24,2.71h-2.95v4.86c0,1.12.32,1.67,1.43,1.67s1.04,0,1.75-.32M74.81,18.85l-.24,2.71h-.88c-1.75,0-2.63,1.43-2.63,2.79v6.21h-3.19v-11.79h3.03v1.43c.72-1.04,1.83-1.43,3.19-1.43h.8l-.08.08ZM53.54,29.29c-2.15,1.12-4.3,1.83-7.09,1.75-5.26-.24-9.08-3.51-9.08-9s3.82-9,9.08-9.08c2.63,0,5.02.64,6.85,2.23l-2.23,2.23c-1.12-.96-2.87-1.51-4.86-1.43-3.27.16-5.26,2.55-5.34,5.82,0,3.59,2.15,6.06,5.58,6.14,1.59,0,2.79-.16,3.74-.64v-3.67h-3.51l.24-3.03h6.69v8.53h0l-.08.16ZM107.56,25.78h-8.68c.24,1.51,1.43,2.39,2.87,2.47,1.43,0,2.23-.4,3.27-1.43l2.07,1.59c-1.43,1.83-3.27,2.47-5.26,2.47-3.51,0-6.21-2.47-6.21-6.14s2.63-6.14,6.06-6.14,5.82,2.31,5.82,6.29v.96h0l.08-.08ZM104.45,23.31c-.08-1.51-1.2-2.39-2.71-2.39s-2.55,1.04-2.79,2.39h5.5ZM65.81,22.83v7.65h-2.79v-1.2c-.96,1.04-2.31,1.43-3.74,1.43-2.15,0-4.22-1.04-4.22-3.51,0-3.9,4.38-4.14,7.17-4.14h.56v-.16c0-1.27-.88-1.99-2.47-1.99s-2.31.48-3.11,1.27l-1.83-1.83c1.67-1.35,3.35-1.83,5.26-1.83,3.67,0,5.26,1.67,5.26,4.3M62.78,25.46h-.4c-1.51,0-4.14.08-4.14,1.67,0,2.23,4.54,1.51,4.54-1.2v-.48h0ZM113.77,29.21c0-.72.56-1.27,1.27-1.27s1.27.56,1.27,1.27-.56,1.35-1.27,1.35-1.27-.56-1.27-1.35M115.05,30.8c.88,0,1.59-.64,1.59-1.59s-.72-1.59-1.59-1.59-1.59.64-1.59,1.59.72,1.59,1.59,1.59M114.73,29.29h.32l.48.8h.32l-.56-.8c.24,0,.48-.16.48-.48s-.24-.48-.64-.48h-.72v1.83h.24v-.8l.08-.08ZM114.73,29.05v-.56h.4c.16,0,.4,0,.4.24s-.24.32-.48.32c0,0-.32,0-.32,0Z"></path>
  </g>
</svg>