<?xml version="1.0"?>
<svg id="Layer_1" data-name="Layer 1" xmlns="http://www.w3.org/2000/svg" fill="#e9eef7" viewBox="0 0 154 44">
  <g id="layer1">
    <g id="g135">
      <path id="path12" d="M45.85,14.2h-3.33c-1.01,0-1.81-.79-1.81-1.8v-3.33c0-.98.79-1.8,1.81-1.8h3.33c.98,0,1.81.79,1.81,1.8v3.33c0,1.01-.79,1.8-1.81,1.8"></path>
      <path id="path14" d="M37.2,21.69h-3.73c-1.13,0-2.02-.92-2.02-2.02v-3.76c0-1.1.92-2.02,2.02-2.02h3.76c1.13,0,2.02.92,2.02,2.02v3.76c0,1.13-.92,2.02-2.05,2.02"></path>
      <path id="path16" d="M36.86,29.49h-2.3c-.67,0-1.22-.55-1.22-1.22v-2.29c0-.67.55-1.22,1.22-1.22h2.3c.67,0,1.22.55,1.22,1.22v2.29c0,.67-.55,1.22-1.22,1.22"></path>
      <path id="path18" d="M43.01,36.74h-2.72c-.79,0-1.47-.64-1.47-1.47v-2.72c0-.79.64-1.47,1.47-1.47h2.72c.79,0,1.47.64,1.47,1.47v2.72c0,.82-.64,1.47-1.47,1.47"></path>
      <path id="path20" d="M52.94,15.58h-1.87c-.55,0-1.01-.46-1.01-1.01v-1.86c0-.55.46-1.01,1.01-1.01h1.87c.55,0,1.01.46,1.01,1.01v1.86c.03.55-.43,1.01-1.01,1.01"></path>
      <path id="path22" d="M94.09,16.83c.61,0,1.07-.49,1.07-1.07,0-.61-.49-1.07-1.07-1.07-.61,0-1.1.49-1.1,1.07s.49,1.07,1.1,1.07Z"></path>
      <path id="path24" d="M54.56,28.39c-.15.24-.43.37-.73.37-.15,0-.37-.03-.49-.12-.24-.15-.4-.46-.4-.76,0-.15.03-.31.12-.43l2.51-3.95-2.51-3.94c-.09-.12-.12-.31-.12-.43,0-.31.15-.61.43-.76.15-.09.31-.12.46-.12.31,0,.58.12.77.37l2.05,3.24,2.08-3.24c.15-.24.46-.37.77-.37.15,0,.31.03.46.12.28.15.43.46.43.76,0,.15-.03.31-.12.43l-2.51,3.94,2.51,3.95c.09.12.12.27.12.43,0,.31-.15.64-.4.76-.15.09-.33.12-.49.12-.31,0-.55-.12-.73-.37l-2.08-3.21s-2.11,3.21-2.11,3.21Z"></path>
      <path id="path26" d="M63.52,19.43c.95-.86,2.23-1.37,3.61-1.37,3.03,0,5.41,2.42,5.41,5.41s-2.42,5.38-5.41,5.38c-1.37,0-2.66-.52-3.61-1.38v4.62c0,.46-.43.86-.88.86-.43,0-.88-.4-.88-.86v-13.09c0-.46.43-.86.88-.86.49,0,.88.4.88.86v.43ZM67.1,19.86c-2.02,0-3.61,1.59-3.61,3.61s1.59,3.61,3.61,3.61,3.61-1.59,3.61-3.61c.03-2.02-1.56-3.61-3.61-3.61Z"></path>
      <path id="path28" d="M87.86,22.49v5.41c0,.46-.43.86-.88.86-.49,0-.88-.4-.88-.86v-8.9c0-.46.43-.86.88-.86.43,0,.86.37.88.83.73-.55,1.68-.88,2.69-.88.55,0,.98.43.98.88,0,.49-.43.92-.98.92-1.38.03-2.69.52-2.69,2.6h0Z"></path>
      <path id="path30" d="M94.09,18.15c-.49,0-.88.4-.88.86v8.93c0,.46.43.86.88.86.43,0,.89-.4.89-.86v-8.93c0-.46-.43-.86-.88-.86h0Z"></path>
      <path id="path32" d="M105.47,19c0-.46.43-.86.89-.86.43,0,.89.4.89.86v8.93c0,.46-.43.86-.89.86-.49,0-.89-.4-.89-.86v-.43c-.98.86-2.23,1.38-3.61,1.38-3.02,0-5.41-2.42-5.41-5.41s2.42-5.38,5.41-5.38c1.37,0,2.63.52,3.61,1.37,0,0,0-.46,0-.46ZM101.86,27.08c2.02,0,3.61-1.59,3.61-3.61s-1.59-3.61-3.61-3.61-3.61,1.59-3.61,3.61,1.59,3.61,3.61,3.61h0Z"></path>
      <path id="path34" d="M116.32,22.61c0-1.5-1.28-2.78-2.78-2.78s-2.78.58-2.78,2.69v5.41c0,.46-.43.86-.89.86-.49,0-.89-.4-.89-.86v-8.93c0-.46.43-.86.89-.86.43,0,.86.37.89.83.76-.58,1.71-.88,2.75-.88,2.42,0,4.59,1.9,4.59,4.28v5.56c0,.46-.43.86-.89.86-.49,0-.89-.4-.89-.86v-5.32h0Z"></path>
      <path id="path36" d="M52.42,23.16c-.03-2.75-2.47-5.08-5.38-5.08s-5.41,2.41-5.41,5.38,2.42,5.41,5.41,5.41c1.44,0,2.78-.55,3.76-1.53.18-.15.31-.43.31-.67,0-.49-.43-.88-.88-.88-.27,0-.52.15-.71.37-.61.64-1.5.95-2.45.95-1.81,0-3.27-1.22-3.58-2.94h8.17s.06,0,.09-.03c.37-.15.67-.52.67-.98h0ZM47.04,19.86c1.62,0,2.97,1.04,3.42,2.51h-6.88c.46-1.47,1.81-2.51,3.46-2.51Z"></path>
      <path id="path38" d="M84.59,23.16c-.03-2.75-2.51-5.08-5.38-5.08-3.03,0-5.41,2.41-5.41,5.38s2.42,5.41,5.41,5.41c1.44,0,2.78-.55,3.76-1.53.18-.15.31-.43.31-.67,0-.49-.43-.88-.88-.88-.28,0-.52.15-.71.37-.61.64-1.5.95-2.45.95-1.81,0-3.27-1.22-3.58-2.94h8.23c.37-.15.71-.55.71-1.01h0ZM79.21,19.86c1.62,0,2.97,1.04,3.42,2.51h-6.88c.46-1.47,1.81-2.51,3.46-2.51h0Z"></path>
      <path id="path40" d="M119.99,28.79c-.09,0-.15-.06-.15-.15v-1.5h-.34c-.09,0-.15-.06-.15-.15s.06-.15.15-.15h.98c.09,0,.15.06.15.15s-.06.15-.15.15h-.34v1.5c0,.09-.06.15-.15.15h0Z"></path>
      <path id="path42" d="M121.73,28.79c-.09,0-.12-.06-.15-.12l-.43-1.22v1.19c0,.09-.06.15-.15.15s-.15-.06-.15-.15v-1.59c0-.12.09-.22.21-.22.09,0,.18.06.21.15l.43,1.26.43-1.26c.03-.09.12-.15.21-.15.12,0,.21.09.21.22v1.59c0,.09-.06.15-.15.15s-.15-.06-.15-.15v-1.19c-.06.18-.15.49-.24.73-.15.49-.18.49-.18.49.03.09-.03.12-.09.12h0Z"></path>
    </g>
  </g>
</svg>