<?xml version="1.0"?>
<svg id="Layer_1" data-name="Layer 1" xmlns="http://www.w3.org/2000/svg" fill="#e9eef7" viewBox="0 0 154 44">
  <path id="path8" d="M27.05,16.06h4.52v.18l-.73.73c-.17.15-.27.38-.26.61v11.38h-.18l-8.55-7.86v5.87c-.01.23.08.45.25.6l.73.73v.18h-4.53v-.18l.73-.73c.18-.14.27-.37.26-.6v-11.47h.16l8.56,7.83v-5.76c.02-.23-.07-.45-.24-.61l-.73-.73v-.18h0ZM44.19,24.95c0,2.41-1.7,3.52-4.47,3.52h-7.14v-.18l.73-.73c.18-.15.28-.37.26-.61v-9.38c.02-.23-.08-.46-.26-.61l-.73-.73v-.18h7.2c2.61,0,3.91,1.24,3.91,3.35-.04,1.25-.95,2.31-2.19,2.54h0c1.67.29,2.72,1.28,2.72,2.97M36.35,20.97h3.08c.95,0,1.46-.45,1.46-1.32s-.43-1.33-1.46-1.33h-3.08v2.65ZM41.36,24.62c0-1.09-.66-1.52-1.98-1.52h-3.03v3.03h3.03c1.12,0,1.98-.39,1.98-1.51M51.82,26.36c-2.11,0-3.54-1.62-3.54-4.04,0-2.56,1.59-4.09,3.64-4.09,1.16-.12,2.25.57,2.65,1.67l.19.05,1.04-4.23-.18-.07c-.34.29-.77.45-1.22.45-.61,0-1.55-.23-2.67-.23-3.64,0-6.48,2.45-6.48,6.46s2.8,6.41,6.43,6.41c1.75.06,3.45-.61,4.67-1.87l-1.62-1.97c-.67.94-1.76,1.48-2.92,1.46M64.78,16.24l.73.73c.18.15.27.37.27.61v6.1c0,1.78-.9,2.65-2.47,2.65s-2.5-.83-2.5-2.65v-6.1c-.01-.23.09-.46.27-.61l.73-.73v-.17h-4.74v.18l.73.73c.18.15.28.37.26.61v6.03c0,3.43,2.19,5.1,5.25,5.1s5.26-1.69,5.26-5.1v-6.03c-.02-.23.08-.46.26-.61l.73-.73v-.17h-4.78v.18h0ZM79.51,26.74v-3.58c0-2.13-1.06-3.37-2.87-3.37-1.19-.03-2.28.63-2.81,1.68v-1.52h-3.53v.19l.73.73c.23.23.26.37.26.82v5.1c0,.45,0,.59-.26.82l-.73.73v.18h4.57v-.18l-.73-.73c-.23-.23-.26-.37-.26-.82v-2.91c0-1.01.5-1.8,1.61-1.8.94,0,1.38.68,1.38,1.67v4.71h3.6v-.18l-.73-.73c-.23-.23-.25-.37-.25-.82M85.03,26.74v-6.78h-3.57v.19l.73.73c.23.23.26.37.26.82v5.1c0,.45,0,.59-.26.82l-.73.73v.18h4.61v-.18l-.73-.73c-.23-.23-.27-.37-.27-.82M83.74,18.69c.83.01,1.52-.65,1.53-1.49v-.06c.02-.83-.64-1.51-1.47-1.53h-.06c-.85-.08-1.6.54-1.69,1.39-.08.85.54,1.6,1.39,1.69.1,0,.2,0,.3,0M95.84,19.95h-3.26l-1.51,4.11h-.04l-1.73-4.1h-3.22v.19c.58.45,1.03,1.03,1.33,1.7l3.47,6.99h.19l3.45-6.99c.28-.68.74-1.26,1.33-1.7v-.2h0ZM104.2,24.2v.73h-5.88c.18,1.01,1.12,1.7,2.14,1.6.68.03,1.33-.24,1.8-.73l1.46,1.73c-.99.78-2.23,1.17-3.48,1.12-2.81,0-4.59-1.71-4.59-4.37-.16-2.35,1.62-4.39,3.98-4.55.18-.01.37-.01.56,0,2.82,0,4.06,1.86,4.06,4.41M101.57,23.35c.06-.84-.58-1.58-1.42-1.64-.05,0-.09,0-.14,0-.92-.02-1.69.72-1.72,1.64h3.28,0ZM108.74,21.6v-1.65h-3.53v.19l.73.73c.23.23.26.37.26.82v5.1c0,.45,0,.59-.26.82l-.73.73v.18h4.58v-.18l-.73-.73c-.22-.23-.25-.37-.25-.82v-2.62c0-1.28.63-1.96,1.63-1.96.47,0,.92.18,1.26.5l.68-2.66c-.34-.17-.72-.25-1.1-.25-1.16.02-2.18.77-2.55,1.88M117.84,23.24c-1.17-.19-2.04-.19-2.04-.88,0-.4.33-.66,1.09-.66,1.03,0,2,.34,2.35,1.13l.18.05.82-3.24-.18-.07c-.32.28-.73.44-1.15.45-.58,0-1.11-.23-2.19-.23-1.87,0-3.64.67-3.64,2.77,0,1.65,1.31,2.28,2.56,2.49s2.12.24,2.12.95c0,.41-.36.73-1.12.73-1.03,0-2.02-.34-2.82-.98l-1.22,1.82c1.12.79,2.48,1.2,3.85,1.14,2.45,0,3.96-1.08,3.96-2.97,0-1.63-1.39-2.27-2.66-2.48M129.68,27.56l.73.73v.18h-3.54v-1.17c-.54.93-1.57,1.47-2.64,1.4-1.38.11-2.58-.92-2.69-2.29,0-.06,0-.12,0-.18,0-1.89,1.3-2.76,4.13-2.82.91,0,1.15-.22,1.15-.73s-.41-.87-1.51-.87c-.79,0-1.55.34-2.08.92l-1.39-1.63c1.03-.92,2.38-1.39,3.75-1.31,2.69,0,3.85,1.12,3.85,3.29v3.64c0,.45.04.59.26.82M126.84,24.62c-.36.09-.72.13-1.09.14-1.17.07-1.58.5-1.58,1.08-.02.5.36.93.86.95h.11c.86.09,1.63-.54,1.72-1.4,0-.05,0-.11,0-.17l-.02-.61h0ZM134.98,27.53c-.23-.23-.27-.37-.27-.82v-11.67h-3.58v.18l.73.73c.23.23.26.37.26.81v9.98c0,.45-.04.59-.26.82l-.73.73v.18h4.57v-.18l-.71-.74v-.02Z"></path>
</svg>