<?xml version="1.0"?>
<svg id="Layer_1" data-name="Layer 1" xmlns="http://www.w3.org/2000/svg" fill="#e9eef7" viewBox="0 0 154 44">
  <g id="Narrative-V2">
    <g id="Welcome">
      <g id="Logo">
        <g id="Group-30">
          <path id="Fill-1" d="M47.99,19.96h-1.83c-.19,0-.33.14-.33.33v7.9c0,.17.16.33.33.33h1.83c.19,0,.33-.14.33-.33v-7.9c0-.19-.16-.33-.33-.33" style="fill-rule: evenodd;"></path>
          <path id="Fill-3" d="M47,16.54c-.85,0-1.32.43-1.32,1.24s.47,1.24,1.32,1.24,1.32-.43,1.32-1.24-.47-1.24-1.32-1.24" style="fill-rule: evenodd;"></path>
          <path id="Fill-5" d="M56.17,26.54c-.16-.28-.33-.29-.65-.14-.29.12-.53.17-.79.17-.61,0-1.32-.26-1.32-1.49v-3.31h2.44c.17,0,.33-.14.33-.33v-1.18c0-.17-.14-.33-.33-.33h-2.44v-2.37c0-.22-.19-.26-.29-.25l-1.77.36c-.19.03-.34.22-.34.4v1.86h-1.27c-.17,0-.33.14-.33.33v1.19c0,.17.14.33.33.33h1.27v3.91c0,1.85,1.23,2.95,3.26,2.95.81,0,1.55-.19,2.1-.54.36-.23.42-.45.22-.82,0,0-.4-.74-.4-.74Z" style="fill-rule: evenodd;"></path>
          <path id="Fill-7" d="M62.55,19.8c-.79,0-1.57.25-2.17.51v-3.29c0-.17-.14-.33-.33-.33h-1.78c-.17,0-.33.14-.33.33v11.14c0,.17.14.33.33.33h1.78c.17,0,.33-.14.33-.33v-5.65c.54-.29,1.27-.51,1.8-.51,1.16,0,1.41.65,1.41,1.72v4.44c0,.17.14.33.33.33h1.78c.17,0,.33-.14.33-.33v-5.12c-.02-2.06-1.27-3.24-3.48-3.24" style="fill-rule: evenodd;"></path>
          <path id="Fill-9" d="M40.59,19.8c-1.01,0-2.14.51-2.79.96-.61-.68-1.52-.96-2.65-.96-.82,0-1.69.31-2.42.73l-.12-.26c-.12-.25-.19-.33-.42-.33h-1.21c-.17,0-.33.14-.33.33v7.9c0,.17.14.33.33.33h1.78c.17,0,.33-.14.33-.33v-5.65c.54-.31,1.16-.51,1.66-.51,1.15,0,1.38.64,1.38,1.72v4.44c0,.17.14.33.33.33h1.78c.17,0,.33-.14.33-.33v-5.11c0-.16-.02-.37-.03-.53.56-.33,1.19-.53,1.69-.53,1.15,0,1.38.64,1.38,1.72v4.44c0,.17.14.33.33.33h1.78c.17,0,.33-.14.33-.33v-5.11c-.06-2.11-1.27-3.26-3.45-3.26" style="fill-rule: evenodd;"></path>
          <path id="Fill-11" d="M25.26,21.29l-1.04-.28c-1.09-.29-1.8-.56-1.8-1.23,0-.95,1.15-1.04,2.03-1.04s1.94.2,3.07.62c.26.09.42.06.51-.2l.43-1.3c.09-.28.06-.4-.23-.53-1.32-.56-2.37-.79-3.74-.79-2.22,0-4.61.85-4.61,3.29,0,1.75,1.07,2.75,3.82,3.52l1.19.33c1.27.34,1.78.56,1.78,1.35s-.76,1.32-2.06,1.32c-1.1,0-2.2-.28-3.63-.88-.33-.11-.54-.11-.67.2l-.51,1.3c-.12.33-.05.48.23.62,1.32.65,3.07,1.07,4.58,1.07,2.67-.02,4.61-1.33,4.61-3.83,0-2.31-1.43-2.86-3.97-3.54" style="fill-rule: evenodd;"></path>
          <path id="Fill-13" d="M73.29,24.15h-5.88c-.17,0-.33.14-.33.31v1.55c0,.17.14.31.33.31h5.88c.17,0,.33-.14.33-.31v-1.55c0-.17-.14-.31-.33-.31" style="fill-rule: evenodd;"></path>
          <path id="Fill-15" d="M114.35,23.37c.06-1.09.78-1.65,1.82-1.65.78,0,1.63.5,1.63,1.65h-3.45ZM116.18,19.8c-2.55,0-4.39,1.88-4.39,4.45s1.77,4.39,4.52,4.39c1.26,0,2.34-.28,3.31-.87.25-.16.29-.4.16-.68l-.45-.84c-.12-.23-.33-.29-.61-.16-.48.25-1.24.53-2.1.53-1.32,0-2.11-.5-2.23-1.77h5.28c.29,0,.53,0,.53-1.27-.02-2.3-1.58-3.79-4-3.79h0Z" style="fill-rule: evenodd;"></path>
          <path id="Fill-17" d="M84.71,23.37c.06-1.09.78-1.65,1.82-1.65.78,0,1.63.5,1.63,1.65h-3.45ZM86.54,19.8c-2.55,0-4.39,1.88-4.39,4.45s1.77,4.39,4.52,4.39c1.26,0,2.34-.28,3.31-.87.25-.16.29-.4.16-.68l-.45-.84c-.12-.23-.33-.29-.61-.16-.48.25-1.24.53-2.1.53-1.32,0-2.11-.5-2.23-1.77h5.28c.29,0,.53,0,.53-1.27-.02-2.3-1.58-3.79-4-3.79h0Z" style="fill-rule: evenodd;"></path>
          <g id="Group-21">
            <path id="Fill-19" d="M134.25,19.88h-1.82c-.19,0-.39.16-.45.33l-1.52,5.14-1.72-5.14c-.06-.17-.26-.33-.47-.33h-1.47c-.19,0-.4.16-.47.33l-1.72,5.14-1.49-5.14c-.05-.19-.25-.33-.43-.33h-1.88c-.17,0-.25.11-.2.26l2.64,7.9c.06.17.26.33.45.33h1.55c.19,0,.4-.16.47-.33l1.8-5.15,1.75,5.15c.06.17.26.33.47.33h1.57c.19,0,.4-.16.47-.33l2.68-7.9c.05-.16-.03-.26-.2-.26" style="fill-rule: evenodd;"></path>
          </g>
          <path id="Fill-22" d="M96.09,26.45c-.61,0-1.24-.17-1.74-.43v-3.51c.54-.31,1.16-.51,1.66-.51,1.41,0,2.3.85,2.3,2.23s-.85,2.22-2.22,2.22M96.37,19.8c-.78,0-1.55.23-2.36.73l-.12-.26c-.12-.25-.19-.33-.42-.33h-1.21c-.17,0-.33.14-.33.33v11.31c0,.17.14.33.33.33h1.78c.17,0,.33-.14.33-.33v-3.23c.36.12.95.28,1.91.28,2.61,0,4.52-1.88,4.52-4.48-.02-2.89-1.8-4.35-4.42-4.35" style="fill-rule: evenodd;"></path>
          <path id="Fill-24" d="M106.78,19.8c-.79,0-1.57.25-2.17.51v-3.29c0-.17-.14-.33-.33-.33h-1.78c-.17,0-.33.14-.33.33v11.14c0,.17.14.33.33.33h1.78c.17,0,.33-.14.33-.33v-5.65c.54-.29,1.27-.51,1.8-.51,1.16,0,1.41.65,1.41,1.72v4.44c0,.17.14.33.33.33h1.78c.17,0,.33-.14.33-.33v-5.12c-.02-2.06-1.27-3.24-3.48-3.24" style="fill-rule: evenodd;"></path>
          <path id="Fill-26" d="M71.27,21.98h-1.68c-.19,0-.33.14-.33.33v5.88c0,.17.14.33.33.33h1.68c.19,0,.33-.14.33-.33v-5.88c0-.19-.14-.33-.33-.33" style="fill-rule: evenodd;"></path>
          <path id="Fill-28" d="M80.27,16.7h-1.82c-.17,0-.33.14-.33.33v7.71l-5.82-7.68c-.22-.29-.36-.36-.78-.36h-1.94c-.17,0-.33.14-.33.33v3.8c0,.17.14.33.33.33h1.65c.17,0,.33-.14.33-.33v-1.01l6.29,8.29c.22.29.43.39.82.39h1.61c.17,0,.33-.14.33-.33v-11.14c-.02-.19-.16-.33-.34-.33" style="fill-rule: evenodd;"></path>
        </g>
      </g>
    </g>
  </g>
</svg>