<?xml version="1.0"?>
<svg id="Layer_1" data-name="Layer 1" xmlns="http://www.w3.org/2000/svg" fill="#e9eef7" viewBox="0 0 154 44">
  <path d="M47.82,10.19v23.62h58.36V10.19h-58.36ZM60.94,31.48l-3.98-13.16h-.05l-2.64,13.16h-4.79l4.06-19.01h6.35l3.89,13.19h.06l2.67-13.19h4.79l-4.03,19.01h-6.32ZM80.3,31.48l1.69-8.14h-5.99l-1.69,8.14h-5.09l3.94-19.01h5.1l-1.5,7.28h6.02l1.5-7.28h5.1l-3.95,19.01h-5.13ZM102.77,16.77c-1.31-.6-2.73-.9-4.17-.87-2.01,0-3.65.3-3.65,1.83,0,2.7,7.38,1.69,7.38,7.46,0,5.26-4.88,6.62-9.29,6.62-2-.05-3.99-.38-5.91-.98l1.18-3.87c1.01.66,3.02,1.09,4.68,1.09s4.06-.3,4.06-2.26c0-3.05-7.38-1.91-7.38-7.28,0-4.9,4.31-6.38,8.47-6.38,2.36,0,4.55.25,5.83.84l-1.21,3.79h0Z"></path>
</svg>