<?xml version="1.0"?>
<svg id="Layer_1" data-name="Layer 1" xmlns="http://www.w3.org/2000/svg" fill="#e9eef7" viewBox="0 0 154 44">
  <path id="svg_1" data-name="svg 1" d="M41.99,18.25l1.39.17c.63.07.69.6.69.93v1.62h-6.38v-1.62c0-.33.07-.86.69-.93l1.39-.17v-1.39h-8.27v1.39l1.39.17c.63.07.69.6.69.93v5.36c0,.33-.07.86-.69.93l-1.39.17v1.39h8.27v-1.39l-1.39-.17c-.63-.07-.69-.6-.69-.93v-1.62h6.35v1.62c0,.33-.07.86-.69.93l-1.39.17v1.39h8.27v-1.39l-1.39-.17c-.63-.07-.69-.6-.69-.93v-5.36c0-.33.07-.86.69-.93l1.39-.17v-1.39h-8.27v1.39s.03,0,.03,0Z"></path>
  <path id="svg_2" data-name="svg 2" d="M97.06,16.86h-10.19v1.39l1.22.13c.43.07.73.23.73.83v5.46c0,.33-.07.86-.69.93l-1.39.17v1.39h10.32c3.7,0,6.75-1.49,6.75-5.16s-3.04-5.13-6.75-5.13M96.3,25.19h-3.47v-6.35h3.47c2.05,0,2.75.96,2.75,3.18s-.69,3.18-2.75,3.18"></path>
  <path id="svg_3" data-name="svg 3" d="M121.14,25.62c-.66-.07-.86-.5-1.06-.79l-4.76-7.28c-.33-.53-.6-.69-1.09-.69h-7.81v1.39l1.89.2c.26.03.63.4.33.86l-3.54,5.72c-.13.23-.33.5-.73.56l-1.39.17v1.39h6.58v-1.39l-1.12-.1c-.5-.07-.76-.4-.5-.79l.53-.86h6.35l.46.69c.43.63-.1.89-.56.93l-1.16.13v1.39h8.93v-1.39l-1.36-.13h0ZM109.56,22.18l1.95-3.18,2.08,3.18h-4.04Z"></path>
  <path id="svg_4" data-name="svg 4" d="M79.5,18.25l1.39.17c.63.07.69.6.69.93v5.16l-5.46-7.21c-.23-.33-.46-.43-1.06-.43h-7.08v1.39l1.39.17c.63.07.69.6.69.93v5.36c0,.33-.07.86-.69.93l-1.39.17v1.39h6.61v-1.39l-1.39-.17c-.63-.07-.69-.6-.69-.93v-5.16l5.46,7.18c.26.33.46.43,1.06.43h5.03v-7.84c0-.33.07-.86.69-.93l1.39-.17v-1.39h-6.58l-.07,1.42h0Z"></path>
  <path id="svg_5" data-name="svg 5" d="M59.09,16.49c-6.71,0-8.43,2.94-8.43,5.49s1.72,5.52,8.43,5.52,8.43-2.94,8.43-5.49-1.72-5.52-8.43-5.52M59.09,25.56c-2.61,0-3.67-1.09-3.67-3.54s1.09-3.54,3.67-3.54,3.67,1.09,3.67,3.54-1.06,3.54-3.67,3.54"></path>
</svg>