<?xml version="1.0"?>
<svg id="Layer_1" data-name="Layer 1" xmlns="http://www.w3.org/2000/svg" fill="#e9eef7" viewBox="0 0 154 44">
  <path d="M60.13,11.79c.11-.92,0-2.27.7-2.9.21-.98,1.76-.75,1.51-1.38-.15-.38-.88-.24-1.17-.13-1.04.33-2.09.6-3.15.82l-1.03-.29c-1.33.18-2.1,1.24-2.84,2.08-.62.7-1.46,2.45-.82,3.46,0,.23-.07.45-.11.68l1.51,2.21c.52.37.59.65,1.15,1.01l.34.52c.65.28,1.37.32,2.05.11,2.17.2,1.94-4.21,2.63-5.13-.12-.43-.39-.81-.78-1.06ZM50.75,25.02c.56-.08,1.1-.21,1.64-.38.65-.33,2.91-1.91,2.19-3.2-.22-2.71-3.49-.42-4.91-1.37-1.36-.18-2.94-2.85-3.36-3.99-.06-.24-.17-.47-.33-.65,0-.04-.14.12-.14.08-.41.48-.34.9-.4,2.07h-.56c0,.31-.09.62-.28.87l-.12.21c-.35-.11-.17.05-.32-.24-1.3.03-1.21,1.33-1.8,2.08.02,2.43,4.84,5.43,8.38,4.52ZM66.75,17.66c-1.5.18-2.93.7-4.18,1.54-.32.22-.6.5-.82.82-.16.28-.2.6-.14.91.03.39.23.75.54,1,2.59-.19,7.06-.35,7.94,1.82.03.19.07.38.12.56.82-.21.23-.14,1.48.06.5,0,1-.09,1.47-.23.14-.04.25-.12.34-.25-.02-.11-.02-.21,0-.32.21.02.43-.02.62-.11,1.19-.19.56-.75,1.13-1.38-.38-4.1-4.54-5.04-8.48-4.44,0,0-.02.02-.02.02ZM62.14,26.45c-.6.46-.82.34-1.2,1.06,0,0,.06.11,0,.11.36.71,1.18,1,1.78,1.5.19.16.7,1.04.93,1.1.27.32.45,1.22.62,1.22.19.25,0,.82.17,1.07,0,1.06-.14,1.14-.32,1.33,0,.07.1.27.1.34s.47.35.66.31c.57,0,2.94,1.87,3.13,2.23,1.69.12,1.57-.39,2.74-.89.32-.13.57,0,.82-.22s.24-.66.44-.88c0-4.17-5.67-8.13-9.88-8.27ZM55.46,27.41c-.24.25-.89.34-1.07.63-.41.68-.88,1.32-1.42,1.9-1.64,1.52-5.04,2.29-6.73.82-.11,0-.05.07.08.49.12.82.76,2.64.52,3.12.16.52.31.34.61.62s.28.71.5.82l.82-.05c.05.14.1.29.14.43l1-.07c.19.04.75.34.92.38l1.1-.07c.82.15,1.65-.07,2.29-.61.4-.27.82-.23,1.19-.53.58-.53,1.08-1.15,1.49-1.82.82-1.46.53-4.91-.2-5.79-.28-.33-.61-.34-1.24-.26Z" style="fill-rule: evenodd;"></path>
  <path d="M96.18,17.91c3.49,0,5.85,2.21,5.85,6.15,0,4.97-3.27,6.43-6.64,6.43h-4.55v-12.58h5.34ZM95.16,28.12c1.93,0,3.49-.64,3.49-4.04,0-2.9-1.56-3.86-3.49-3.86h-1.01v7.9h1.01ZM106.98,28.55c0,.92.05,1.92.05,1.92h-3.38v-12.55h7.98v2.45s-1.78-.04-2.39-.04h-2.26v2.49h4.14v2.32h-4.14v3.41ZM84.1,27.96c-1.46.09-2.72-1.02-2.81-2.48v-.39s2.95-.07,3.95-.07c1.7,0,2.41,0,3.74-.04v-.95c0-4.29-1.82-6.37-5.56-6.37-1.73,0-5.73.65-5.73,6.66,0,4,2.03,6.4,5.56,6.4,2.04.11,4.05-.47,5.73-1.64-.13-.2-1.17-2.06-1.3-2.27-1.03.76-2.29,1.17-3.58,1.15ZM81.29,22.68c.05-.73.31-2.45,2.15-2.45s1.99,1.6,1.99,2.45v.15h-4.15v-.15h0Z"></path>
</svg>